<?xml version="1.0" encoding="utf-8"?>
<svg viewBox="0 0 500 500" xmlns="http://www.w3.org/2000/svg" xmlns:xlink="http://www.w3.org/1999/xlink">
  <defs>
    <path id="text-path-0" d="M 90 320 C 90 270 110 110 250 110 C 390 110 419.999 310.001 420 310"/>
  </defs>
  <rect x="20" y="20" width="460" height="460" rx="20" ry="20" style="fill: rgb(255, 255, 255);" transform="matrix(1.0000000000000002, 0, 0, 1.0000000000000002, 2.842170943040401e-14, 0)"/>
  <g transform="matrix(0.9000020623207093, 0, 0, 0.9000020623207093, 25.00001028180148, 24.999420911056433)" style="">
    <g>
      <g>
        <g transform="matrix(1.315604, 0, 0, 1.315604, -78.901573, -78.900261)" style="">
          <path d="M 108.009 123.327 L 123.33 108.006 L 163 127.792 C 149.402 137.49 137.492 149.4 127.794 162.997 L 108.009 123.327 C 107.924 123.242 107.924 123.412 108.009 123.327 Z M 167.293 78.632 L 187.31 70.34 L 216.373 103.783 C 199.837 107.57 184.342 114.091 170.39 122.844 L 167.293 78.632 Z M 239.167 60.026 L 260.834 60.026 L 274.89 102.054 C 266.794 100.703 258.479 99.999 250 99.999 C 241.521 99.999 233.206 100.703 225.111 102.054 L 239.167 60.026 Z M 312.692 70.341 L 332.709 78.633 L 329.611 122.845 C 315.66 114.092 300.165 107.571 283.628 103.783 L 312.692 70.341 Z M 376.671 108.007 L 391.992 123.328 L 372.206 162.998 C 362.509 149.401 350.598 137.49 337.001 127.793 L 376.671 108.007 Z M 421.367 167.29 L 429.658 187.308 L 396.216 216.37 C 392.428 199.833 385.907 184.339 377.154 170.387 L 421.367 167.29 Z M 439.973 239.166 L 439.973 260.833 L 397.945 274.889 C 399.296 266.793 400 258.478 400 249.999 C 400 241.52 399.296 233.205 397.945 225.11 L 439.973 239.166 Z M 429.658 312.69 L 421.366 332.708 L 377.154 329.61 C 385.907 315.658 392.428 300.164 396.216 283.627 L 429.658 312.69 Z M 391.991 376.67 L 376.67 391.991 L 337.001 372.205 C 350.598 362.508 362.509 350.598 372.206 337 L 391.991 376.67 Z M 332.707 421.365 L 312.69 429.657 L 283.628 396.215 C 300.164 392.427 315.658 385.907 329.61 377.154 L 332.707 421.365 Z M 260.833 439.973 L 239.166 439.973 L 225.11 397.943 C 233.205 399.295 241.521 399.999 250 399.999 C 258.479 399.999 266.794 399.295 274.89 397.944 L 260.833 439.973 Z M 187.308 429.657 L 167.291 421.366 L 170.389 377.153 C 184.341 385.906 199.835 392.427 216.372 396.215 L 187.308 429.657 Z M 123.329 391.99 L 108.008 376.669 L 127.794 337 C 137.491 350.597 149.401 362.508 162.999 372.205 L 123.329 391.99 Z M 78.633 332.707 L 70.342 312.689 L 103.784 283.627 C 107.572 300.164 114.093 315.658 122.846 329.61 L 78.633 332.707 Z M 60.027 260.832 L 60.027 239.165 L 102.055 225.109 C 100.704 233.205 100 241.52 100 249.999 C 100 258.478 100.704 266.793 102.055 274.888 L 60.027 260.832 Z M 70.342 187.308 L 78.634 167.29 L 122.846 170.388 C 114.093 184.34 107.572 199.834 103.784 216.371 L 70.342 187.308 Z M 260.834 60.026 C 260.834 59.906 260.953 60.026 260.834 60.026 Z M 239.167 60.026 C 239.047 60.026 239.167 59.906 239.167 60.026 Z M 439.973 260.833 C 440.093 260.833 439.973 260.952 439.973 260.833 Z M 439.973 239.166 C 439.973 239.046 440.093 239.166 439.973 239.166 Z M 60.027 239.165 C 59.907 239.165 60.027 239.046 60.027 239.165 Z M 60.027 260.832 C 60.027 260.952 59.907 260.832 60.027 260.832 Z M 239.166 439.973 C 239.166 440.093 239.047 439.973 239.166 439.973 Z M 260.833 439.973 C 260.953 439.973 260.833 440.093 260.833 439.973 Z M 391.992 123.328 C 392.077 123.243 392.076 123.412 391.992 123.328 Z M 376.671 108.007 C 376.586 107.922 376.756 107.922 376.671 108.007 Z M 376.67 391.991 C 376.755 392.076 376.586 392.075 376.67 391.991 Z M 391.991 376.67 C 392.076 376.586 392.076 376.755 391.991 376.67 Z M 123.33 108.006 C 123.245 107.922 123.414 107.922 123.33 108.006 Z M 108.008 376.669 C 107.923 376.754 107.924 376.585 108.008 376.669 Z M 123.329 391.99 C 123.414 392.075 123.244 392.075 123.329 391.99 Z M 332.709 78.633 C 332.755 78.522 332.819 78.678 332.709 78.633 Z M 312.692 70.341 C 312.581 70.295 312.738 70.23 312.692 70.341 Z M 421.366 332.708 C 421.477 332.754 421.321 332.818 421.366 332.708 Z M 429.658 312.69 C 429.704 312.579 429.769 312.736 429.658 312.69 Z M 78.634 167.29 C 78.523 167.244 78.679 167.18 78.634 167.29 Z M 70.342 187.308 C 70.296 187.419 70.231 187.262 70.342 187.308 Z M 167.291 421.366 C 167.245 421.476 167.181 421.32 167.291 421.366 Z M 187.308 429.657 C 187.419 429.703 187.262 429.768 187.308 429.657 Z M 429.658 187.308 C 429.769 187.262 429.704 187.417 429.658 187.308 Z M 421.367 167.29 C 421.321 167.179 421.478 167.244 421.367 167.29 Z M 312.69 429.657 C 312.736 429.768 312.58 429.702 312.69 429.657 Z M 332.707 421.365 C 332.818 421.319 332.753 421.476 332.707 421.365 Z M 187.31 70.34 C 187.264 70.229 187.42 70.294 187.31 70.34 Z M 167.293 78.632 C 167.182 78.677 167.247 78.521 167.293 78.632 Z M 70.342 312.689 C 70.231 312.735 70.296 312.579 70.342 312.689 Z M 78.633 332.707 C 78.679 332.818 78.522 332.753 78.633 332.707 Z M 400 249.999 C 400 332.842 332.843 399.999 250 399.999 C 167.157 399.999 100 332.842 100 249.999 C 100 167.156 167.157 99.999 250 99.999 C 332.843 99.999 400 167.156 400 249.999 Z" style="fill: rgb(0, 0, 128);"/>
        </g>
        <ellipse style="stroke: rgb(0, 0, 0); fill: rgb(0, 0, 128);" cx="250" cy="250" rx="230" ry="230"/>
      </g>
      <ellipse style="stroke: rgb(0, 0, 0); fill: rgb(255, 255, 255);" cx="249.999" cy="250" rx="200" ry="200"/>
    </g>
  </g>
  <path d="M 381.87 225.052 C 429.822 286.908 250 390 250 390 C 250 390 70.178 286.908 118.13 225.052 C 166.083 163.195 250 235.361 250 235.361 C 250 235.361 333.917 163.195 381.87 225.052 Z" style="fill: rgb(0, 0, 128);" transform="matrix(1.0000000000000002, 0, 0, 1.0000000000000002, 2.842170943040401e-14, 0)"/>
  <text style="fill: rgb(255, 255, 255); font-size: 64px; font-weight: 700; white-space: pre;" x="163.839" y="324.492" transform="matrix(1.0000000000000002, 0, 0, 1.0437940359115603, 0.0030600001084906125, -35.013699621370364)">POCS</text>
  <circle style="fill: none;" cx="250" cy="245" r="150" transform="matrix(1.0000000000000002, 0, 0, 1.0437940359115603, 2.842170943040401e-14, -10.948483793392285)"/>
  <text style="fill: rgb(0, 0, 128); font-size: 46.2px; line-height: 80.2204px; stroke: rgb(0, 0, 0); white-space: pre;" transform="matrix(0.9582890272140504, 0, 0, 0.9741310477256776, 11.013471931620586, 5.200415289414366)"><textPath startOffset="148" xlink:href="#text-path-0">pantasya.rf.gd</textPath></text>
</svg>